<svg xmlns="http://www.w3.org/2000/svg" xmlns:xlink="http://www.w3.org/1999/xlink" width="500" zoomAndPan="magnify" viewBox="0 0 375 374.999991" height="500" preserveAspectRatio="xMidYMid meet" version="1.0"><defs><g/><clipPath id="da34904ae3"><path d="M 18 101.335938 L 209 101.335938 L 209 290.335938 L 18 290.335938 Z M 18 101.335938 " clip-rule="nonzero"/></clipPath></defs><rect x="-37.5" width="450" fill="#ffffff" y="-37.499999" height="449.999989" fill-opacity="1"/><rect x="-37.5" width="450" fill="#ffffff" y="-37.499999" height="449.999989" fill-opacity="1"/><path fill="#009688" d="M 128.785156 198.226562 C 120.90625 212.308594 105.847656 221.824219 88.566406 221.824219 C 71.285156 221.824219 56.222656 212.308594 48.347656 198.226562 C 49.894531 195.203125 52.019531 192.402344 54.613281 189.902344 C 55.6875 188.855469 56.84375 187.867188 58.074219 186.941406 C 64.097656 182.382812 71.890625 179.167969 80.617188 177.933594 C 82.179688 177.710938 83.777344 177.554688 85.390625 177.464844 C 85.8125 177.445312 86.230469 177.425781 86.652344 177.414062 L 86.621094 177.574219 L 86.367188 178.890625 L 79.875 207.722656 L 88.566406 217.347656 L 97.253906 207.722656 L 90.757812 178.890625 L 90.503906 177.574219 L 90.472656 177.414062 C 90.898438 177.425781 91.316406 177.445312 91.734375 177.464844 C 93.347656 177.554688 94.945312 177.710938 96.511719 177.933594 C 105.234375 179.167969 113.027344 182.382812 119.050781 186.941406 C 123.257812 190.117188 126.605469 193.957031 128.785156 198.226562 " fill-opacity="1" fill-rule="nonzero"/><path fill="#009688" d="M 82.167969 172.941406 C 83.289062 173.292969 84.453125 173.558594 85.652344 173.71875 C 86.300781 173.808594 86.957031 173.863281 87.625 173.894531 C 87.933594 173.914062 88.246094 173.914062 88.5625 173.914062 C 88.878906 173.914062 89.191406 173.914062 89.5 173.894531 C 90.167969 173.863281 90.828125 173.808594 91.472656 173.71875 C 92.671875 173.558594 93.835938 173.292969 94.957031 172.941406 C 103.707031 170.222656 110.050781 162.070312 110.050781 152.429688 C 110.050781 140.5625 100.433594 130.945312 88.5625 130.945312 C 76.691406 130.945312 67.074219 140.5625 67.074219 152.429688 C 67.074219 162.070312 73.417969 170.222656 82.167969 172.941406 " fill-opacity="1" fill-rule="nonzero"/><g clip-path="url(#da34904ae3)"><path fill="#009688" d="M 88.566406 116.09375 C 118.710938 116.09375 143.144531 140.53125 143.144531 170.671875 C 143.144531 180.335938 140.636719 189.414062 136.226562 197.28125 C 126.894531 213.976562 109.046875 225.25 88.566406 225.25 C 68.085938 225.25 50.238281 213.976562 40.90625 197.28125 C 36.496094 189.414062 33.988281 180.335938 33.988281 170.671875 C 33.988281 140.53125 58.421875 116.09375 88.566406 116.09375 Z M 206.59375 279.007812 L 142.574219 214.988281 L 145.097656 211.492188 C 145.75 210.585938 146.382812 209.660156 146.984375 208.722656 L 146.984375 208.71875 C 155.25 195.996094 159.140625 180.773438 157.980469 165.484375 C 156.730469 148.890625 149.570312 133.289062 137.816406 121.535156 C 124.683594 108.402344 107.191406 101.167969 88.566406 101.167969 C 69.933594 101.167969 52.441406 108.402344 39.308594 121.535156 C 15.765625 145.078125 12.628906 181.417969 29.914062 208.367188 C 32.554688 212.511719 35.691406 216.425781 39.308594 220.042969 C 41.257812 221.996094 43.3125 223.8125 45.441406 225.5 C 45.789062 225.773438 46.136719 226.042969 46.484375 226.308594 C 54.058594 232.070312 62.660156 236.167969 71.839844 238.410156 C 77.246094 239.734375 82.851562 240.414062 88.566406 240.414062 C 94.261719 240.414062 99.863281 239.734375 105.273438 238.410156 C 113.863281 236.3125 121.980469 232.578125 129.261719 227.324219 L 130.671875 226.308594 L 131.683594 225.582031 L 132.761719 224.804688 L 196.777344 288.820312 C 198.089844 290.132812 199.832031 290.855469 201.683594 290.855469 C 203.539062 290.855469 205.28125 290.132812 206.59375 288.820312 C 207.90625 287.507812 208.621094 285.765625 208.621094 283.910156 C 208.621094 282.0625 207.90625 280.320312 206.59375 279.007812 " fill-opacity="1" fill-rule="nonzero"/></g><g fill="#009688" fill-opacity="1"><g transform="translate(179.828006, 141.444455)"><g><path d="M 19.285156 -24.019531 L 0.71875 -24.019531 L 0.71875 -19.179688 L 7.410156 -19.179688 L 7.410156 0 L 12.59375 0 L 12.59375 -19.179688 L 19.285156 -19.179688 Z M 19.285156 -24.019531 "/></g></g></g><g fill="#009688" fill-opacity="1"><g transform="translate(213.589132, 141.444455)"><g><path d="M 17.5 -18.53125 L 16.984375 -16.78125 C 15.371094 -18.1875 13.28125 -19.042969 10.878906 -19.042969 C 5.320312 -19.042969 1.167969 -14.859375 1.167969 -9.265625 C 1.167969 -3.671875 5.320312 0.550781 10.878906 0.550781 C 13.246094 0.550781 15.304688 -0.273438 16.882812 -1.679688 L 17.328125 0 L 21.238281 0 L 21.238281 -18.53125 Z M 11.289062 -4.1875 C 8.371094 -4.1875 6.246094 -6.382812 6.246094 -9.265625 C 6.246094 -12.179688 8.371094 -14.34375 11.289062 -14.34375 C 14.207031 -14.34375 16.332031 -12.179688 16.332031 -9.265625 C 16.332031 -6.347656 14.207031 -4.1875 11.289062 -4.1875 Z M 11.289062 -4.1875 "/></g></g></g><g fill="#009688" fill-opacity="1"><g transform="translate(250.986215, 141.444455)"><g><path d="M 2.402344 0 L 7.410156 0 L 7.410156 -25.1875 L 2.402344 -25.1875 Z M 2.402344 0 "/></g></g></g><g fill="#009688" fill-opacity="1"><g transform="translate(274.525497, 141.444455)"><g><path d="M 20.382812 -9.300781 C 20.382812 -14.652344 16.46875 -19.042969 10.773438 -19.042969 C 5.285156 -19.042969 1.167969 -14.824219 1.167969 -9.265625 C 1.167969 -3.707031 5.320312 0.550781 10.773438 0.550781 C 15.097656 0.550781 18.632812 -2.023438 19.96875 -6.074219 L 14.71875 -6.074219 C 13.964844 -4.734375 12.523438 -3.910156 10.773438 -3.910156 C 8.339844 -3.910156 6.691406 -5.320312 6.246094 -7.859375 L 20.28125 -7.859375 C 20.347656 -8.339844 20.382812 -8.820312 20.382812 -9.300781 Z M 10.773438 -14.753906 C 13.039062 -14.753906 14.652344 -13.519531 15.371094 -11.253906 L 6.382812 -11.253906 C 6.964844 -13.449219 8.542969 -14.753906 10.773438 -14.753906 Z M 10.773438 -14.753906 "/></g></g></g><g fill="#009688" fill-opacity="1"><g transform="translate(309.795886, 141.444455)"><g><path d="M 12.9375 -18.941406 C 10.429688 -18.941406 8.199219 -17.878906 6.792969 -16.230469 L 5.832031 -18.53125 L 2.402344 -18.53125 L 2.402344 0 L 7.410156 0 L 7.410156 -9.710938 C 7.410156 -12.695312 8.988281 -14.550781 11.5625 -14.550781 C 13.726562 -14.550781 14.789062 -13.210938 14.789062 -10.398438 L 14.789062 0 L 19.800781 0 L 19.800781 -11.21875 C 19.800781 -15.921875 17.15625 -18.941406 12.9375 -18.941406 Z M 12.9375 -18.941406 "/></g></g></g><g fill="#009688" fill-opacity="1"><g transform="translate(345.51219, 141.444455)"><g><path d="M 11.460938 -4.460938 C 9.609375 -4.460938 8.578125 -5.488281 8.578125 -7.273438 L 8.578125 -14.480469 L 13.621094 -14.480469 L 13.621094 -18.53125 L 8.507812 -18.53125 L 8.507812 -23.332031 L 7.550781 -23.332031 L 0.238281 -15.578125 L 0.238281 -14.480469 L 3.570312 -14.480469 L 3.570312 -6.589844 C 3.570312 -2.503906 6.074219 0 10.15625 0 L 13.726562 0 L 13.726562 -4.460938 Z M 11.460938 -4.460938 "/></g></g></g><g fill="#009688" fill-opacity="1"><g transform="translate(179.828006, 189.353539)"><g><path d="M 17.945312 -24.019531 L 17.945312 -9.367188 L 7.410156 -24.019531 L 2.746094 -24.019531 L 2.746094 0 L 7.824219 0 L 7.824219 -14.996094 L 18.699219 0 L 23.058594 0 L 23.058594 -24.019531 Z M 17.945312 -24.019531 "/></g></g></g><g fill="#009688" fill-opacity="1"><g transform="translate(219.351783, 189.353539)"><g><path d="M 20.382812 -9.300781 C 20.382812 -14.652344 16.46875 -19.042969 10.773438 -19.042969 C 5.285156 -19.042969 1.167969 -14.824219 1.167969 -9.265625 C 1.167969 -3.707031 5.320312 0.550781 10.773438 0.550781 C 15.097656 0.550781 18.632812 -2.023438 19.96875 -6.074219 L 14.71875 -6.074219 C 13.964844 -4.734375 12.523438 -3.910156 10.773438 -3.910156 C 8.339844 -3.910156 6.691406 -5.320312 6.246094 -7.859375 L 20.28125 -7.859375 C 20.347656 -8.339844 20.382812 -8.820312 20.382812 -9.300781 Z M 10.773438 -14.753906 C 13.039062 -14.753906 14.652344 -13.519531 15.371094 -11.253906 L 6.382812 -11.253906 C 6.964844 -13.449219 8.542969 -14.753906 10.773438 -14.753906 Z M 10.773438 -14.753906 "/></g></g></g><g fill="#009688" fill-opacity="1"><g transform="translate(254.622172, 189.353539)"><g><path d="M 11.460938 -4.460938 C 9.609375 -4.460938 8.578125 -5.488281 8.578125 -7.273438 L 8.578125 -14.480469 L 13.621094 -14.480469 L 13.621094 -18.53125 L 8.507812 -18.53125 L 8.507812 -23.332031 L 7.550781 -23.332031 L 0.238281 -15.578125 L 0.238281 -14.480469 L 3.570312 -14.480469 L 3.570312 -6.589844 C 3.570312 -2.503906 6.074219 0 10.15625 0 L 13.726562 0 L 13.726562 -4.460938 Z M 11.460938 -4.460938 "/></g></g></g><g fill="#128f8b" fill-opacity="1"><g transform="translate(181.819392, 219.708389)"><g><path d="M 5.34375 -9.375 C 6.375 -9.375 7.1875 -9.160156 7.78125 -8.734375 C 8.382812 -8.316406 8.6875 -7.75 8.6875 -7.03125 C 8.6875 -6.53125 8.539062 -6.09375 8.25 -5.71875 C 7.957031 -5.351562 7.5625 -5.101562 7.0625 -4.96875 C 7.675781 -4.851562 8.15625 -4.582031 8.5 -4.15625 C 8.851562 -3.726562 9.03125 -3.207031 9.03125 -2.59375 C 9.03125 -1.789062 8.710938 -1.15625 8.078125 -0.6875 C 7.441406 -0.226562 6.578125 0 5.484375 0 L 1.03125 0 L 1.03125 -9.375 Z M 5.234375 -5.59375 C 5.640625 -5.59375 5.953125 -5.679688 6.171875 -5.859375 C 6.398438 -6.046875 6.515625 -6.304688 6.515625 -6.640625 C 6.515625 -6.960938 6.398438 -7.210938 6.171875 -7.390625 C 5.953125 -7.566406 5.640625 -7.648438 5.234375 -7.640625 L 3.140625 -7.640625 L 3.140625 -5.59375 Z M 5.234375 -1.734375 C 5.734375 -1.734375 6.125 -1.832031 6.40625 -2.03125 C 6.695312 -2.226562 6.84375 -2.503906 6.84375 -2.859375 C 6.84375 -3.203125 6.695312 -3.472656 6.40625 -3.671875 C 6.125 -3.867188 5.734375 -3.960938 5.234375 -3.953125 L 3.140625 -3.953125 L 3.140625 -1.734375 Z M 5.234375 -1.734375 "/></g></g></g><g fill="#128f8b" fill-opacity="1"><g transform="translate(202.068657, 219.708389)"><g><path d="M 2.984375 -3.875 C 2.984375 -3.195312 3.171875 -2.664062 3.546875 -2.28125 C 3.929688 -1.894531 4.441406 -1.703125 5.078125 -1.703125 C 5.691406 -1.703125 6.179688 -1.894531 6.546875 -2.28125 C 6.910156 -2.664062 7.09375 -3.195312 7.09375 -3.875 L 7.09375 -9.375 L 9.21875 -9.375 L 9.21875 -3.875 C 9.21875 -3.050781 9.046875 -2.335938 8.703125 -1.734375 C 8.367188 -1.128906 7.890625 -0.664062 7.265625 -0.34375 C 6.640625 -0.0195312 5.90625 0.140625 5.0625 0.140625 C 4.21875 0.140625 3.476562 -0.0195312 2.84375 -0.34375 C 2.207031 -0.664062 1.71875 -1.128906 1.375 -1.734375 C 1.039062 -2.335938 0.875 -3.050781 0.875 -3.875 L 0.875 -9.375 L 2.984375 -9.375 Z M 2.984375 -3.875 "/></g></g></g><g fill="#128f8b" fill-opacity="1"><g transform="translate(222.866945, 219.708389)"><g><path d="M 7.203125 -6.765625 C 6.722656 -7.054688 6.210938 -7.285156 5.671875 -7.453125 C 5.128906 -7.628906 4.664062 -7.71875 4.28125 -7.71875 C 3.914062 -7.71875 3.625 -7.648438 3.40625 -7.515625 C 3.195312 -7.390625 3.09375 -7.195312 3.09375 -6.9375 C 3.09375 -6.601562 3.242188 -6.347656 3.546875 -6.171875 C 3.859375 -6.003906 4.335938 -5.828125 4.984375 -5.640625 C 5.628906 -5.453125 6.15625 -5.265625 6.5625 -5.078125 C 6.976562 -4.890625 7.332031 -4.609375 7.625 -4.234375 C 7.925781 -3.859375 8.078125 -3.363281 8.078125 -2.75 C 8.078125 -2.144531 7.914062 -1.625 7.59375 -1.1875 C 7.28125 -0.757812 6.847656 -0.429688 6.296875 -0.203125 C 5.742188 0.015625 5.113281 0.125 4.40625 0.125 C 3.644531 0.125 2.898438 -0.0078125 2.171875 -0.28125 C 1.441406 -0.550781 0.804688 -0.914062 0.265625 -1.375 L 1.109375 -3.109375 C 1.585938 -2.679688 2.132812 -2.335938 2.75 -2.078125 C 3.363281 -1.816406 3.925781 -1.6875 4.4375 -1.6875 C 4.875 -1.6875 5.210938 -1.765625 5.453125 -1.921875 C 5.703125 -2.085938 5.828125 -2.320312 5.828125 -2.625 C 5.828125 -2.863281 5.742188 -3.0625 5.578125 -3.21875 C 5.410156 -3.375 5.195312 -3.5 4.9375 -3.59375 C 4.6875 -3.695312 4.335938 -3.8125 3.890625 -3.9375 C 3.253906 -4.113281 2.734375 -4.289062 2.328125 -4.46875 C 1.921875 -4.644531 1.566406 -4.914062 1.265625 -5.28125 C 0.972656 -5.65625 0.828125 -6.144531 0.828125 -6.75 C 0.828125 -7.3125 0.976562 -7.800781 1.28125 -8.21875 C 1.582031 -8.644531 2.003906 -8.972656 2.546875 -9.203125 C 3.097656 -9.429688 3.734375 -9.546875 4.453125 -9.546875 C 5.097656 -9.546875 5.734375 -9.453125 6.359375 -9.265625 C 6.984375 -9.078125 7.535156 -8.828125 8.015625 -8.515625 Z M 7.203125 -6.765625 "/></g></g></g><g fill="#128f8b" fill-opacity="1"><g transform="translate(242.111866, 219.708389)"><g><path d="M 1.03125 0 L 1.03125 -9.375 L 3.140625 -9.375 L 3.140625 0 Z M 1.03125 0 "/></g></g></g><g fill="#128f8b" fill-opacity="1"><g transform="translate(257.018063, 219.708389)"><g><path d="M 7.515625 -3.328125 L 7.515625 -9.375 L 9.515625 -9.375 L 9.515625 0 L 7.59375 0 L 3.046875 -6.03125 L 3.046875 0 L 1.03125 0 L 1.03125 -9.375 L 2.953125 -9.375 Z M 7.515625 -3.328125 "/></g></g></g><g fill="#128f8b" fill-opacity="1"><g transform="translate(278.285046, 219.708389)"><g><path d="M 1.03125 0 L 1.03125 -9.375 L 8.171875 -9.375 L 8.171875 -7.625 L 3.140625 -7.625 L 3.140625 -5.578125 L 7.65625 -5.578125 L 7.65625 -3.828125 L 3.140625 -3.828125 L 3.140625 -1.75 L 8.3125 -1.75 L 8.3125 0 Z M 1.03125 0 "/></g></g></g><g fill="#128f8b" fill-opacity="1"><g transform="translate(297.945101, 219.708389)"><g><path d="M 7.203125 -6.765625 C 6.722656 -7.054688 6.210938 -7.285156 5.671875 -7.453125 C 5.128906 -7.628906 4.664062 -7.71875 4.28125 -7.71875 C 3.914062 -7.71875 3.625 -7.648438 3.40625 -7.515625 C 3.195312 -7.390625 3.09375 -7.195312 3.09375 -6.9375 C 3.09375 -6.601562 3.242188 -6.347656 3.546875 -6.171875 C 3.859375 -6.003906 4.335938 -5.828125 4.984375 -5.640625 C 5.628906 -5.453125 6.15625 -5.265625 6.5625 -5.078125 C 6.976562 -4.890625 7.332031 -4.609375 7.625 -4.234375 C 7.925781 -3.859375 8.078125 -3.363281 8.078125 -2.75 C 8.078125 -2.144531 7.914062 -1.625 7.59375 -1.1875 C 7.28125 -0.757812 6.847656 -0.429688 6.296875 -0.203125 C 5.742188 0.015625 5.113281 0.125 4.40625 0.125 C 3.644531 0.125 2.898438 -0.0078125 2.171875 -0.28125 C 1.441406 -0.550781 0.804688 -0.914062 0.265625 -1.375 L 1.109375 -3.109375 C 1.585938 -2.679688 2.132812 -2.335938 2.75 -2.078125 C 3.363281 -1.816406 3.925781 -1.6875 4.4375 -1.6875 C 4.875 -1.6875 5.210938 -1.765625 5.453125 -1.921875 C 5.703125 -2.085938 5.828125 -2.320312 5.828125 -2.625 C 5.828125 -2.863281 5.742188 -3.0625 5.578125 -3.21875 C 5.410156 -3.375 5.195312 -3.5 4.9375 -3.59375 C 4.6875 -3.695312 4.335938 -3.8125 3.890625 -3.9375 C 3.253906 -4.113281 2.734375 -4.289062 2.328125 -4.46875 C 1.921875 -4.644531 1.566406 -4.914062 1.265625 -5.28125 C 0.972656 -5.65625 0.828125 -6.144531 0.828125 -6.75 C 0.828125 -7.3125 0.976562 -7.800781 1.28125 -8.21875 C 1.582031 -8.644531 2.003906 -8.972656 2.546875 -9.203125 C 3.097656 -9.429688 3.734375 -9.546875 4.453125 -9.546875 C 5.097656 -9.546875 5.734375 -9.453125 6.359375 -9.265625 C 6.984375 -9.078125 7.535156 -8.828125 8.015625 -8.515625 Z M 7.203125 -6.765625 "/></g></g></g><g fill="#128f8b" fill-opacity="1"><g transform="translate(317.190026, 219.708389)"><g><path d="M 7.203125 -6.765625 C 6.722656 -7.054688 6.210938 -7.285156 5.671875 -7.453125 C 5.128906 -7.628906 4.664062 -7.71875 4.28125 -7.71875 C 3.914062 -7.71875 3.625 -7.648438 3.40625 -7.515625 C 3.195312 -7.390625 3.09375 -7.195312 3.09375 -6.9375 C 3.09375 -6.601562 3.242188 -6.347656 3.546875 -6.171875 C 3.859375 -6.003906 4.335938 -5.828125 4.984375 -5.640625 C 5.628906 -5.453125 6.15625 -5.265625 6.5625 -5.078125 C 6.976562 -4.890625 7.332031 -4.609375 7.625 -4.234375 C 7.925781 -3.859375 8.078125 -3.363281 8.078125 -2.75 C 8.078125 -2.144531 7.914062 -1.625 7.59375 -1.1875 C 7.28125 -0.757812 6.847656 -0.429688 6.296875 -0.203125 C 5.742188 0.015625 5.113281 0.125 4.40625 0.125 C 3.644531 0.125 2.898438 -0.0078125 2.171875 -0.28125 C 1.441406 -0.550781 0.804688 -0.914062 0.265625 -1.375 L 1.109375 -3.109375 C 1.585938 -2.679688 2.132812 -2.335938 2.75 -2.078125 C 3.363281 -1.816406 3.925781 -1.6875 4.4375 -1.6875 C 4.875 -1.6875 5.210938 -1.765625 5.453125 -1.921875 C 5.703125 -2.085938 5.828125 -2.320312 5.828125 -2.625 C 5.828125 -2.863281 5.742188 -3.0625 5.578125 -3.21875 C 5.410156 -3.375 5.195312 -3.5 4.9375 -3.59375 C 4.6875 -3.695312 4.335938 -3.8125 3.890625 -3.9375 C 3.253906 -4.113281 2.734375 -4.289062 2.328125 -4.46875 C 1.921875 -4.644531 1.566406 -4.914062 1.265625 -5.28125 C 0.972656 -5.65625 0.828125 -6.144531 0.828125 -6.75 C 0.828125 -7.3125 0.976562 -7.800781 1.28125 -8.21875 C 1.582031 -8.644531 2.003906 -8.972656 2.546875 -9.203125 C 3.097656 -9.429688 3.734375 -9.546875 4.453125 -9.546875 C 5.097656 -9.546875 5.734375 -9.453125 6.359375 -9.265625 C 6.984375 -9.078125 7.535156 -8.828125 8.015625 -8.515625 Z M 7.203125 -6.765625 "/></g></g></g></svg>